<?xml version="1.0" encoding="UTF-8" standalone="no"?>
<!DOCTYPE svg PUBLIC "-//W3C//DTD SVG 1.1//EN" "http://www.w3.org/Graphics/SVG/1.1/DTD/svg11.dtd">
<svg width="100%" height="100%" viewBox="0 0 16 16" version="1.1" xmlns="http://www.w3.org/2000/svg" xmlns:xlink="http://www.w3.org/1999/xlink" xml:space="preserve" xmlns:serif="http://www.serif.com/" style="fill-rule:evenodd;clip-rule:evenodd;stroke-linejoin:round;stroke-miterlimit:2;">
    <g transform="matrix(1,0,0,1,-1008,-1087)">
        <g id="SVG" transform="matrix(0.015625,0,0,0.015625,1007.9,1087)">
            <rect x="0" y="0" width="1024" height="1024" style="fill:none;"/>
            <path d="M500.647,991.868C240.963,985.828 32,773.124 32,512C32,250.876 240.963,38.172 500.647,32.132C502.726,32.046 504.812,32.003 506.903,32.003C507.456,32.003 508.009,32.006 508.561,32.012C509.706,32.004 510.853,32 512,32C776.919,32 992,247.081 992,512C992,776.919 776.919,992 512,992C510.853,992 509.706,991.996 508.561,991.988C508.009,991.994 507.456,991.997 506.903,991.997C504.812,991.997 502.726,991.954 500.647,991.868ZM261.353,703.093C249.399,653.799 241.925,600.215 239.858,544L97.215,544C101.56,601.002 117.413,654.806 142.454,703.093L261.353,703.093ZM480,479.999L480,320L327.4,320C314.269,368.854 306.119,422.931 303.893,480L480,479.999ZM280.523,256C297.413,208.089 318.899,165.898 343.867,131.429C280.887,159.322 226.104,202.397 184.172,256L280.523,256ZM794.404,596.839L695.67,767.093L544,767.093L544,926.785C758.669,910.423 928,730.83 928,512C928,293.17 758.669,113.577 544,97.215L544,479.999L572.843,479.999L627.492,386.49C615.593,371.767 608.465,353.033 608.465,332.648C608.465,285.32 646.889,246.896 694.217,246.896C741.545,246.896 779.969,285.32 779.969,332.648C779.969,379.976 741.545,418.4 694.217,418.4C690.543,418.4 686.922,418.169 683.369,417.719L609.568,544L544,544L544,703.093L658.802,703.092L739.172,564.506C727.91,549.993 721.203,531.774 721.203,512C721.203,464.672 759.627,426.248 806.955,426.248C854.283,426.248 892.707,464.672 892.707,512C892.707,559.328 854.283,597.752 806.955,597.752C802.692,597.752 798.501,597.441 794.404,596.839ZM806.955,471.048C784.353,471.048 766.003,489.398 766.003,512C766.003,534.602 784.353,552.952 806.955,552.952C829.557,552.952 847.907,534.602 847.907,512C847.907,489.398 829.557,471.048 806.955,471.048ZM694.217,291.696C671.615,291.696 653.265,310.046 653.265,332.648C653.265,355.25 671.615,373.6 694.217,373.6C716.819,373.6 735.169,355.25 735.169,332.648C735.169,310.046 716.819,291.696 694.217,291.696ZM183.465,767.093C225.487,821.117 280.532,864.52 343.867,892.571C318.742,857.884 297.142,815.379 280.205,767.093L183.465,767.093ZM348.273,767.093C362.575,802.855 379.934,834.431 399.83,860.595C423.504,891.727 450.218,915.038 480,923.99L480,767.093L348.273,767.093ZM239.858,480C241.938,423.44 249.49,369.543 261.574,320L142.926,320C117.612,368.52 101.587,422.641 97.215,480L239.858,480ZM480,703.093L480,544L303.893,544C306.105,600.715 314.168,654.477 327.157,703.093L480,703.093ZM480,256L480,100.01C450.218,108.962 423.504,132.273 399.83,163.405C380.102,189.348 362.869,220.611 348.636,256L480,256Z"/>
        </g>
    </g>
</svg>
