<?xml version="1.0" encoding="UTF-8" standalone="no"?>
<!DOCTYPE svg PUBLIC "-//W3C//DTD SVG 1.1//EN" "http://www.w3.org/Graphics/SVG/1.1/DTD/svg11.dtd">
<svg width="100%" height="100%" viewBox="0 0 16 16" version="1.1" xmlns="http://www.w3.org/2000/svg" xmlns:xlink="http://www.w3.org/1999/xlink" xml:space="preserve" xmlns:serif="http://www.serif.com/" style="fill-rule:evenodd;clip-rule:evenodd;stroke-linecap:round;stroke-miterlimit:1.5;">
    <g transform="matrix(1,0,0,1,-2231,-1091)">
        <g id="Pinned-Tab" serif:id="Pinned Tab" transform="matrix(0.015625,0,0,0.015625,2231,1091)">
            <rect x="0" y="0" width="1024" height="1024" style="fill:none;"/>
            <g transform="matrix(0.852459,0,0,0.852459,75.541,75.541)">
                <g transform="matrix(1.66838,0,0,1.66838,-346.379,-323.022)">
                    <circle cx="514.5" cy="500.5" r="292.5" style="fill:none;stroke:black;stroke-width:45px;"/>
                </g>
                <g transform="matrix(1.12737,0,0,1.06213,-68.0125,-16.172)">
                    <path d="M139.482,727L675.235,727L777.809,537.075" style="fill:none;stroke:black;stroke-width:68.55px;stroke-linecap:butt;"/>
                </g>
                <g transform="matrix(1.16915,0,0,1.16915,-83.5618,-69.0677)">
                    <path d="M508.561,914.394C385.159,913.554 285.113,726.849 285.113,497C285.113,267.151 385.159,80.446 508.561,79.606L508.561,914.394Z" style="fill:none;stroke:black;stroke-width:64.21px;stroke-linejoin:round;"/>
                </g>
                <g transform="matrix(1.79483,0,0,1.77778,-407.933,-398.667)">
                    <path d="M512,375L277,375" style="fill:none;stroke:black;stroke-width:42.03px;stroke-linecap:butt;"/>
                </g>
                <g transform="matrix(1.13488,0,0,1.25824,-69.0605,-132.219)">
                    <path d="M82,512L587.015,512L660.917,397.132" style="fill:none;stroke:black;stroke-width:62.66px;stroke-linecap:butt;"/>
                </g>
                <g transform="matrix(0.22245,0,0,0.22245,596.036,205.298)">
                    <circle cx="514.5" cy="500.5" r="292.5" style="fill:none;stroke:black;stroke-width:337.5px;"/>
                </g>
                <g transform="matrix(0.22245,0,0,0.22245,718.84,400.664)">
                    <circle cx="514.5" cy="500.5" r="292.5" style="fill:none;stroke:black;stroke-width:337.5px;"/>
                </g>
            </g>
        </g>
    </g>
</svg>
